<?xml version="1.0" encoding="UTF-8"?>
<svg width="20px" height="18px" viewBox="0 0 20 18" version="1.1" xmlns="http://www.w3.org/2000/svg" xmlns:xlink="http://www.w3.org/1999/xlink">
    <title>23 – e-commerce</title>
    <defs>
        <filter color-interpolation-filters="auto" id="filter-1">
            <feColorMatrix in="SourceGraphic" type="matrix" values="0 0 0 0 0.282353 0 0 0 0 0.439216 0 0 0 0 1.000000 0 0 0 1.000000 0"></feColorMatrix>
        </filter>
    </defs>
    <g id="页面-1" stroke="none" stroke-width="1" fill="none" fill-rule="evenodd" stroke-linecap="round">
        <g id="详情页" transform="translate(-154.000000, -1489.000000)">
            <g id="仓库介绍" transform="translate(152.000000, 1216.000000)">
                <g id="大货" transform="translate(0.000000, 270.000000)">
                    <g id="23-–-e-commerce" transform="translate(2.000000, 3.000000)" filter="url(#filter-1)">
                        <g id="icon" fill="#595959" fill-rule="nonzero">
                            <path d="M16.6119078,4.50569065 L2.66708278,4.50569065 C2.52020049,4.50569065 2.37356929,4.51782622 2.22868548,4.54197352 C0.775964627,4.78409366 -0.205421156,6.15803376 0.0366989868,7.61075462 L1.37003232,15.6107546 C1.58433808,16.8965892 2.69684504,17.839024 4.00041612,17.839024 L15.2785744,17.839024 C16.5821455,17.839024 17.6946525,16.8965892 17.9089582,15.6107546 L19.2422916,7.61075462 C19.2664389,7.46587081 19.2785744,7.31923961 19.2785744,7.17235732 C19.2785744,5.69959798 18.0846671,4.50569065 16.6119078,4.50569065 Z M2.66708278,5.83902398 L16.6119078,5.83902398 C17.3482874,5.83902398 17.9452411,6.43597765 17.9452411,7.17235732 C17.9452411,7.24579846 17.9391733,7.31911407 17.9270997,7.39155597 L16.5937663,15.391556 C16.4866134,16.0344733 15.93036,16.5056907 15.2785744,16.5056907 L4.00041612,16.5056907 C3.34863058,16.5056907 2.7923771,16.0344733 2.68522422,15.391556 L1.35189089,7.39155597 C1.23083081,6.66519554 1.72152371,5.97822549 2.44788413,5.85716542 C2.52032604,5.84509177 2.59364164,5.83902398 2.66708278,5.83902398 Z" id="Path-139"></path>
                            <path d="M8.27161302,0.540925592 C9.00887456,-0.150257109 10.1390429,-0.179056388 10.9090467,0.454527754 L11.0073775,0.540925592 L15.4287894,4.68599918 C15.6973975,4.93781935 15.7110069,5.35970989 15.4591867,5.62831807 C15.2267374,5.87626408 14.8493759,5.906933 14.5814282,5.71212078 L14.5168679,5.65871545 L10.095456,1.51364186 C9.86038713,1.29326477 9.50549032,1.27490001 9.25045011,1.45854759 L9.18353452,1.51364186 L4.76212269,5.65871545 C4.49351451,5.91053562 4.07162397,5.89692625 3.8198038,5.62831807 C3.58735442,5.38037206 3.58106985,5.00181859 3.79274604,4.74698335 L3.85020119,4.68599918 L8.27161302,0.540925592 Z" id="Path-140"></path>
                        </g>
                    </g>
                </g>
            </g>
        </g>
    </g>
</svg>