<?xml version="1.0" encoding="UTF-8"?>
<svg width="24px" height="24px" viewBox="0 0 24 24" version="1.1" xmlns="http://www.w3.org/2000/svg" xmlns:xlink="http://www.w3.org/1999/xlink">
    <title>形状</title>
    <g id="页面-1" stroke="none" stroke-width="1" fill="none" fill-rule="evenodd">
        <g id="详情页" transform="translate(-479.000000, -1134.000000)" fill="#666666" fill-rule="nonzero">
            <g id="联系方式" transform="translate(152.000000, 1018.000000)">
                <g id="联系方式信息" transform="translate(104.000000, 76.000000)">
                    <g id="邮件" transform="translate(223.000000, 40.000000)">
                        <path d="M3.99977091,5 L20.000229,5 C21.0928874,5 21.9862559,5.83063328 22,6.85346098 L12.0057267,12.0891016 L2.00916274,6.85787923 C2.01832549,5.83284243 2.90482187,5 3.99977091,5 L3.99977091,5 Z M2.00916274,8.86156112 L2,18.1244477 C2,19.1561119 2.90024051,20 3.99977093,20 L20.0002291,20 C21.0997595,20 22,19.1561119 22,18.1244477 L22,8.85714285 L12.2393769,13.8497791 C12.0904822,13.9270987 11.9095178,13.9270987 11.7606231,13.8497791 L2.00916274,8.86156112 L2.00916274,8.86156112 Z" id="形状"></path>
                    </g>
                </g>
            </g>
        </g>
    </g>
</svg>