<?xml version="1.0" encoding="UTF-8"?>
<svg width="32px" height="32px" viewBox="0 0 32 32" version="1.1" xmlns="http://www.w3.org/2000/svg" xmlns:xlink="http://www.w3.org/1999/xlink">
    <title>icon备份</title>
    <defs>
        <filter color-interpolation-filters="auto" id="filter-1">
            <feColorMatrix in="SourceGraphic" type="matrix" values="0 0 0 0 0.200000 0 0 0 0 0.200000 0 0 0 0 0.200000 0 0 0 1.000000 0"></feColorMatrix>
        </filter>
    </defs>
    <g id="页面-1" stroke="none" stroke-width="1" fill="none" fill-rule="evenodd" stroke-linecap="round">
        <g id="详情页" transform="translate(-152.000000, -2583.000000)">
            <g id="服务与报价" transform="translate(152.000000, 1765.000000)">
                <g id="icon备份" transform="translate(0.000000, 818.000000)" filter="url(#filter-1)">
                    <g id="1-–-e-commerce" transform="translate(5.000000, 5.000000)">
                        <rect id="body" x="0" y="0" width="23" height="23"></rect>
                        <g id="icon" transform="translate(0.188900, 1.341667)" fill="#595959" fill-rule="nonzero">
                            <path d="M14.1020777,12.1239578 C14.4442419,12.1239578 14.7216208,12.4672153 14.7216208,12.8906448 C14.7216208,13.2838294 14.4824523,13.607886 14.1743295,13.6521738 L14.1020777,13.6573319 L9.14573265,13.6573319 C8.80356843,13.6573319 8.52618952,13.3140744 8.52618952,12.8906448 C8.52618952,12.4974602 8.76535807,12.1734036 9.07348083,12.1291159 L9.14573265,12.1239578 L14.1020777,12.1239578 Z" id="Path-106" transform="translate(11.592312, 12.890561) rotate(-450.000000) translate(-11.592312, -12.890561) "></path>
                            <path d="M11.6851254,13.4461667 C11.8947333,13.1158893 12.3195352,13.0266417 12.6339471,13.2468267 C12.925901,13.4512841 13.0200115,13.8506547 12.8641424,14.1711031 L12.8237114,14.2435271 L11.7084228,16.0010396 L12.8237114,17.7585522 C13.0183473,18.0652384 12.9589932,18.471911 12.6977853,18.7047348 L12.6339471,18.7552526 C12.3419932,18.9597101 11.9548561,18.8973609 11.7332165,18.6229721 L11.6851254,18.5559125 L10.0636962,16.0010396 L11.6851254,13.4461667 Z" id="Path-107" transform="translate(11.486100, 15.928461) rotate(-450.000000) translate(-11.486100, -15.928461) "></path>
                            <path d="M17.987703,0 L4.6344972,0 C3.25158063,0 2.03975757,0.92558541 1.67588815,2.25977329 L0.0405219051,8.25611618 C-0.0252285791,8.49720129 -0.0106622882,8.75314274 0.0820165926,8.98521122 C0.317571575,9.57504234 0.98667921,9.86223989 1.57651032,9.6266849 L3.79996936,8.7387242 C4.18426942,8.5852501 4.6142868,8.59362178 4.99232219,8.76193719 L6.61458748,9.48423003 C7.40793369,9.83745726 8.31384455,9.83775702 9.10742435,9.48505489 L10.6759988,8.7879107 C11.0772498,8.60957691 11.535702,8.61182256 11.9351867,8.79407863 L13.4256857,9.47408577 C14.2136396,9.83357229 15.116862,9.84311328 15.912234,9.50035188 L17.6539731,8.74975845 C18.0292498,8.58803491 18.4535567,8.58279971 18.8327093,8.73521491 L21.042696,9.62360536 C21.2753811,9.71714224 21.5322641,9.73205403 21.7742093,9.66606897 C22.3869573,9.49895588 22.7482158,8.86675356 22.5811027,8.25400556 L20.9463121,2.25977329 C20.5824426,0.92558541 19.3706196,0 17.987703,0 Z M17.987703,1.53333333 L18.1087681,1.5380848 C18.7489779,1.58848646 19.2957749,2.03536686 19.4670075,2.66321998 L20.8982668,7.91276667 L19.4046136,7.31252853 C18.6463084,7.00769813 17.7976947,7.01816854 17.0471413,7.34161562 L15.3054022,8.09220904 C14.9077162,8.26358974 14.456105,8.25881925 14.062128,8.07907599 L12.5716291,7.39906885 C11.7726596,7.03455672 10.8557552,7.03006541 10.0532531,7.38673299 L8.4846787,8.08387718 C8.0878888,8.26022825 7.63493337,8.26007837 7.23826027,8.08346475 L5.61599497,7.36117192 L5.43976053,7.28916809 C4.72815219,7.02388053 3.94076636,7.03140914 3.23128933,7.31474592 L1.72163343,7.91736667 L3.15519267,2.66321998 C3.33712739,1.99612604 3.94303891,1.53333333 4.6344972,1.53333333 L17.987703,1.53333333 Z" id="Rectangle"></path>
                            <path d="M20.5111001,8.05 C20.9042742,8.05 21.2283223,8.37884905 21.2726088,8.80250793 L21.2777668,8.90185185 L21.2777668,16.1425926 C21.2777668,17.9674257 19.9867243,19.4572153 18.3641577,19.5458299 L18.2111001,19.55 L4.4111001,19.55 C2.7687503,19.55 1.42793963,18.1155083 1.3481865,16.3126566 L1.34443343,16.1425926 L1.34443343,8.90185185 C1.34443343,8.43138706 1.68768179,8.05 2.1111001,8.05 C2.50427424,8.05 2.82832226,8.37884905 2.87260884,8.80250793 L2.87776677,8.90185185 L2.87776677,16.1425926 C2.87776677,17.0407526 3.50327307,17.7765851 4.29666563,17.8416233 L4.4111001,17.8462963 L18.2111001,17.8462963 C19.0194441,17.8462963 19.6816934,17.1512893 19.7402277,16.269742 L19.7444334,16.1425926 L19.7444334,8.90185185 C19.7444334,8.43138706 20.0876818,8.05 20.5111001,8.05 Z" id="Path-592"></path>
                        </g>
                    </g>
                </g>
            </g>
        </g>
    </g>
</svg>