<?xml version="1.0" encoding="UTF-8"?>
<svg width="32px" height="32px" viewBox="0 0 32 32" version="1.1" xmlns="http://www.w3.org/2000/svg" xmlns:xlink="http://www.w3.org/1999/xlink">
    <title>icon备份</title>
    <defs>
        <filter color-interpolation-filters="auto" id="filter-1">
            <feColorMatrix in="SourceGraphic" type="matrix" values="0 0 0 0 0.200000 0 0 0 0 0.200000 0 0 0 0 0.200000 0 0 0 1.000000 0"></feColorMatrix>
        </filter>
    </defs>
    <g id="页面-1" stroke="none" stroke-width="1" fill="none" fill-rule="evenodd" stroke-linecap="round">
        <g id="详情页" transform="translate(-152.000000, -2799.000000)">
            <g id="服务与报价" transform="translate(152.000000, 1765.000000)">
                <g id="icon备份" transform="translate(0.000000, 1034.000000)" filter="url(#filter-1)">
                    <g id="106-–-e-commerce" transform="translate(5.000000, 4.999506)">
                        <rect id="body" x="0" y="0.000493632887" width="22" height="22"></rect>
                        <g id="icon" transform="translate(2.200000, 0.000000)" fill="#595959">
                            <path d="M6.82682647,0.8032165 L0.720119853,6.35476797 C0.261476181,6.77171676 0,7.36279719 0,7.98263613 L0,19.0671603 C0,20.6871956 1.31329807,22.0004936 2.93333333,22.0004936 L14.6666667,22.0004936 C16.2867019,22.0004936 17.6,20.6871956 17.6,19.0671603 L17.6,7.98263613 C17.6,7.36279719 17.3385238,6.77171676 16.8798801,6.35476797 L10.7731735,0.8032165 C9.65433793,-0.213906768 7.94566207,-0.213906768 6.82682647,0.8032165 Z M9.78658676,1.88846194 L15.8932934,7.44001341 C16.0461746,7.57899634 16.1333333,7.77602315 16.1333333,7.98263613 L16.1333333,19.0671603 C16.1333333,19.8771779 15.4766843,20.533827 14.6666667,20.533827 L2.93333333,20.533827 C2.1233157,20.533827 1.46666667,19.8771779 1.46666667,19.0671603 L1.46666667,7.98263613 C1.46666667,7.77602315 1.55382539,7.57899634 1.70670662,7.44001341 L7.81341324,1.88846194 C8.37283103,1.37990031 9.22716897,1.37990031 9.78658676,1.88846194 Z" id="Rectangle" fill-rule="nonzero"></path>
                            <path d="M8.8,4.40049363 C7.17996473,4.40049363 5.86666667,5.7137917 5.86666667,7.33382697 C5.86666667,8.95386223 7.17996473,10.2671603 8.8,10.2671603 C10.4200353,10.2671603 11.7333333,8.95386223 11.7333333,7.33382697 C11.7333333,5.7137917 10.4200353,4.40049363 8.8,4.40049363 Z M8.8,5.8671603 C9.61001763,5.8671603 10.2666667,6.52380933 10.2666667,7.33382697 C10.2666667,8.1438446 9.61001763,8.80049363 8.8,8.80049363 C7.98998237,8.80049363 7.33333333,8.1438446 7.33333333,7.33382697 C7.33333333,6.52380933 7.98998237,5.8671603 8.8,5.8671603 Z" id="Oval" fill-rule="nonzero"></path>
                            <path d="M8.17425999,4.75143029 C11.0583125,0.0320716156 14.8988959,-1.2024016 19.4097843,1.18571583 C19.7677262,1.37521448 19.9042765,1.81900273 19.7147778,2.17694463 C19.5252792,2.53488653 19.0814909,2.67143676 18.723549,2.4819381 C14.9233264,0.470055533 11.9194653,1.43558232 9.42574001,5.51622364 C9.21454816,5.86181031 8.76318999,5.97075883 8.41760333,5.75956698 C8.07201666,5.54837513 7.96306814,5.09701696 8.17425999,4.75143029 Z" id="Path-606" fill-rule="nonzero"></path>
                            <path d="M6.26968629,17.6004936 L4.74618353,17.6004936 L3.848616,14.3889994 L3.86633115,14.5280798 C3.90963507,14.8357442 3.94408084,15.1170632 3.96966952,15.3720454 C3.99525819,15.6270275 4.00805234,15.9146683 4.00805234,16.2349764 L4.00805234,17.6004936 L2.93333333,17.6004936 L2.93333333,13.2004936 L4.42731085,13.2004936 L5.36030867,16.4246316 L5.34259352,16.2918729 C5.29535289,16.0010669 5.25893878,15.7302842 5.23335011,15.4795166 C5.20776143,15.2287491 5.19496729,14.939001 5.19496729,14.6102637 L5.19496729,13.2004936 L6.26968629,13.2004936 L6.26968629,17.6004936 Z M9.47612817,13.2004936 L9.35212213,14.1045166 L7.99396074,14.1045166 L7.99396074,14.9263557 L9.18678074,14.9263557 L9.18678074,15.8050913 L7.99396074,15.8050913 L7.99396074,16.6901488 L9.44660292,16.6901488 L9.44660292,17.6004936 L6.77752055,17.6004936 L6.77752055,13.2004936 L9.47612817,13.2004936 Z M14.6666667,13.2004936 L14.0702567,17.6004936 L12.4877034,17.6004936 L12.1215903,14.4395741 L11.7141419,17.6004936 L10.167019,17.6004936 L9.59422916,13.2004936 L10.8106694,13.2004936 L11.0704915,16.6585396 L11.5074652,13.2004936 L12.7770508,13.2004936 L13.1431639,16.6585396 L13.4974669,13.2004936 L14.6666667,13.2004936 Z" id="NEW"></path>
                        </g>
                    </g>
                </g>
            </g>
        </g>
    </g>
</svg>