<?xml version="1.0" encoding="UTF-8"?>
<svg width="32px" height="32px" viewBox="0 0 32 32" version="1.1" xmlns="http://www.w3.org/2000/svg" xmlns:xlink="http://www.w3.org/1999/xlink">
    <title>icon备份</title>
    <defs>
        <filter color-interpolation-filters="auto" id="filter-1">
            <feColorMatrix in="SourceGraphic" type="matrix" values="0 0 0 0 0.200000 0 0 0 0 0.200000 0 0 0 0 0.200000 0 0 0 1.000000 0"></feColorMatrix>
        </filter>
    </defs>
    <g id="页面-1" stroke="none" stroke-width="1" fill="none" fill-rule="evenodd" stroke-linecap="round">
        <g id="详情页" transform="translate(-152.000000, -2346.000000)">
            <g id="服务与报价" transform="translate(152.000000, 1765.000000)">
                <g id="icon备份" transform="translate(0.000000, 581.000000)" filter="url(#filter-1)">
                    <g id="icon" transform="translate(5.000000, 5.000000)">
                        <g id="编组-6">
                            <rect id="矩形" fill="#333333" x="0" y="5" width="21" height="1.47" rx="0.735"></rect>
                            <path d="M18.8571429,0 C20.5402964,0 21.9144191,1.31721165 21.9961537,2.9726673 L22,3.12882734 L22,11.4673179 C22,11.8993188 21.6482237,12.2495247 21.2142857,12.2495247 C20.8113433,12.2495247 20.4792444,11.9475614 20.4338575,11.5585397 L20.4285714,11.4673179 L20.4285714,3.12882734 C20.4285714,2.30409834 19.7875246,1.62842547 18.9744204,1.56870465 L18.8571429,1.56441367 L3.14285714,1.56441367 C2.31443002,1.56441367 1.6357274,2.20259885 1.57573879,3.01207331 L1.57142857,3.12882734 L1.57142857,18.772964 C1.57142857,19.597693 2.21247541,20.2733659 3.02557959,20.3330867 L3.14285714,20.3373777 L19.4550939,20.4355863 C19.889032,20.4355863 20.2408082,20.7857923 20.2408082,21.2177932 C20.2408082,21.6189369 19.9374909,21.9495533 19.5467248,21.9947375 L19.4550939,22 L3.14285714,21.9017914 C1.45970362,21.9017914 0.0855808831,20.5845797 0.00384631283,18.9291241 L0,18.772964 L0,3.12882734 C0,1.45318746 1.32311808,0.0851988477 2.98599687,0.00382914278 L3.14285714,0 L18.8571429,0 Z" id="Path-1108" fill="#595959" fill-rule="nonzero"></path>
                            <rect id="矩形备份" fill="#333333" x="0" y="11" width="22" height="1.47" rx="0.735"></rect>
                            <rect id="矩形" fill="#333333" x="6.6" y="1" width="1.47" height="21" rx="0.735"></rect>
                            <rect id="矩形备份-2" fill="#333333" x="13.2" y="1" width="1.47" height="21" rx="0.735"></rect>
                        </g>
                        <g id="dop" transform="translate(15.466667, 13.933333)" fill="#595959">
                            <path d="M4.03333333,0 C6.26088182,0 8.06666667,1.80578484 8.06666667,4.03333333 C8.06666667,4.43834215 7.73834215,4.76666667 7.33333333,4.76666667 C6.92832452,4.76666667 6.6,4.43834215 6.6,4.03333333 C6.6,2.61580248 5.45086419,1.46666667 4.03333333,1.46666667 C2.61580248,1.46666667 1.46666667,2.61580248 1.46666667,4.03333333 C1.46666667,5.45086419 2.61580248,6.6 4.03333333,6.6 C4.43834215,6.6 4.76666667,6.92832452 4.76666667,7.33333333 C4.76666667,7.73834215 4.43834215,8.06666667 4.03333333,8.06666667 C3.65829786,8.06666667 3.29521767,8.01548006 2.95069783,7.91971192 C1.24891881,7.44665876 0,5.88584635 0,4.03333333 C0,1.80578484 1.80578484,0 4.03333333,0 Z" id="Oval-13" fill-rule="nonzero"></path>
                            <path d="M7.50728059,3.86402216 L8.72512279,5.06247959 C8.92194509,5.25616901 8.92448479,5.57274131 8.73079537,5.76956362 C8.6368071,5.86507212 8.50841582,5.91885789 8.37441706,5.91885789 L5.93873268,5.91885789 C5.66259031,5.91885789 5.43873268,5.69500027 5.43873268,5.41885789 C5.43873268,5.28485914 5.49251846,5.15646785 5.58802696,5.06247959 L6.80586915,3.86402216 C7.00046214,3.67252657 7.31268761,3.67252657 7.50728059,3.86402216 Z" id="Triangle-2" transform="translate(7.156575, 4.792762) scale(1, -1) translate(-7.156575, -4.792762) "></path>
                        </g>
                    </g>
                </g>
            </g>
        </g>
    </g>
</svg>