<?xml version="1.0" encoding="UTF-8"?>
<svg width="32px" height="32px" viewBox="0 0 32 32" version="1.1" xmlns="http://www.w3.org/2000/svg" xmlns:xlink="http://www.w3.org/1999/xlink">
    <title>icon备份</title>
    <defs>
        <filter color-interpolation-filters="auto" id="filter-1">
            <feColorMatrix in="SourceGraphic" type="matrix" values="0 0 0 0 0.200000 0 0 0 0 0.200000 0 0 0 0 0.200000 0 0 0 1.000000 0"></feColorMatrix>
        </filter>
    </defs>
    <g id="页面-1" stroke="none" stroke-width="1" fill="none" fill-rule="evenodd" stroke-linecap="round">
        <g id="详情页" transform="translate(-152.000000, -2418.000000)">
            <g id="服务与报价" transform="translate(152.000000, 1765.000000)">
                <g id="icon备份" transform="translate(0.000000, 653.000000)" filter="url(#filter-1)">
                    <g id="112-–-e-commerce" transform="translate(6.000000, 6.000000)" fill="#595959" fill-rule="nonzero">
                        <g id="icon">
                            <path d="M19.0666667,5.86666667 L1.46666667,5.86666667 C0.656649034,5.86666667 0,6.5233157 0,7.33333333 L0,10.2666667 C0,11.0766843 0.656649034,11.7333333 1.46666667,11.7333333 L19.0666667,11.7333333 C19.8766843,11.7333333 20.5333333,11.0766843 20.5333333,10.2666667 L20.5333333,7.33333333 C20.5333333,6.5233157 19.8766843,5.86666667 19.0666667,5.86666667 Z M1.46666667,7.33333333 L19.0666667,7.33333333 L19.0666667,10.2666667 L1.46666667,10.2666667 L1.46666667,7.33333333 Z" id="Rectangle"></path>
                            <path d="M18.4833333,10.4686432 C18.8679602,10.4686432 19.1849637,10.7581733 19.2282875,11.1311774 L19.2333333,11.2186432 L19.2333333,17.4833333 C19.2333333,19.0899799 17.970357,20.4016425 16.3830636,20.4796619 L16.2333333,20.4833333 L4.23333333,20.4833333 C2.62668679,20.4833333 1.31502418,19.220357 1.23700481,17.6330636 L1.23333333,17.4833333 L1.23333333,11.3472602 C1.23333333,10.9330466 1.56911977,10.5972602 1.98333333,10.5972602 C2.36796021,10.5972602 2.6849637,10.8867903 2.72828753,11.2597943 L2.73333333,11.3472602 L2.73333333,17.4833333 C2.73333333,18.2741047 3.34524168,18.9219572 4.12138657,18.979219 L4.23333333,18.9833333 L16.2333333,18.9833333 C17.0241047,18.9833333 17.6719572,18.371425 17.729219,17.5952801 L17.7333333,17.4833333 L17.7333333,11.2186432 C17.7333333,10.8044296 18.0691198,10.4686432 18.4833333,10.4686432 Z" id="Path-612"></path>
                            <path d="M8.43333333,0 C7.01580248,0 5.86666667,1.14913581 5.86666667,2.56666667 C5.86666667,3.98419752 7.01580248,5.13333333 8.43333333,5.13333333 C9.85086419,5.13333333 11,3.98419752 11,2.56666667 C11,1.14913581 9.85086419,0 8.43333333,0 Z M8.43333333,1.46666667 C9.04084656,1.46666667 9.53333333,1.95915344 9.53333333,2.56666667 C9.53333333,3.17417989 9.04084656,3.66666667 8.43333333,3.66666667 C7.82582011,3.66666667 7.33333333,3.17417989 7.33333333,2.56666667 C7.33333333,1.95915344 7.82582011,1.46666667 8.43333333,1.46666667 Z" id="Oval"></path>
                            <path d="M12.1,0 C10.6824691,0 9.53333333,1.14913581 9.53333333,2.56666667 C9.53333333,3.98419752 10.6824691,5.13333333 12.1,5.13333333 C13.5175309,5.13333333 14.6666667,3.98419752 14.6666667,2.56666667 C14.6666667,1.14913581 13.5175309,0 12.1,0 Z M12.1,1.46666667 C12.7075132,1.46666667 13.2,1.95915344 13.2,2.56666667 C13.2,3.17417989 12.7075132,3.66666667 12.1,3.66666667 C11.4924868,3.66666667 11,3.17417989 11,2.56666667 C11,1.95915344 11.4924868,1.46666667 12.1,1.46666667 Z" id="Oval-Copy-28"></path>
                        </g>
                    </g>
                </g>
            </g>
        </g>
    </g>
</svg>