<?xml version="1.0" encoding="UTF-8"?>
<svg width="32px" height="32px" viewBox="0 0 32 32" version="1.1" xmlns="http://www.w3.org/2000/svg" xmlns:xlink="http://www.w3.org/1999/xlink">
    <title>icon备份</title>
    <defs>
        <filter color-interpolation-filters="auto" id="filter-1">
            <feColorMatrix in="SourceGraphic" type="matrix" values="0 0 0 0 0.200000 0 0 0 0 0.200000 0 0 0 0 0.200000 0 0 0 1.000000 0"></feColorMatrix>
        </filter>
    </defs>
    <g id="页面-1" stroke="none" stroke-width="1" fill="none" fill-rule="evenodd" stroke-linecap="round">
        <g id="详情页" transform="translate(-152.000000, -2871.000000)">
            <g id="服务与报价" transform="translate(152.000000, 1765.000000)">
                <g id="icon备份" transform="translate(0.000000, 1106.000000)" filter="url(#filter-1)">
                    <g id="140-–-e-commerce" transform="translate(5.000000, 5.000000)">
                        <rect id="body" x="0" y="0" width="23" height="23"></rect>
                        <g id="icon" transform="translate(0.766667, 0.766667)">
                            <path d="M5.36666667,15.3333333 C3.67299343,15.3333333 2.3,16.7063268 2.3,18.4 C2.3,20.0936732 3.67299343,21.4666667 5.36666667,21.4666667 C7.0603399,21.4666667 8.43333333,20.0936732 8.43333333,18.4 C8.43333333,16.7063268 7.0603399,15.3333333 5.36666667,15.3333333 Z M5.36666667,16.8666667 C6.21350328,16.8666667 6.9,17.5531634 6.9,18.4 C6.9,19.2468366 6.21350328,19.9333333 5.36666667,19.9333333 C4.51983005,19.9333333 3.83333333,19.2468366 3.83333333,18.4 C3.83333333,17.5531634 4.51983005,16.8666667 5.36666667,16.8666667 Z" id="Oval" fill="#595959" fill-rule="nonzero"></path>
                            <path d="M16.1,15.3333333 C14.4063268,15.3333333 13.0333333,16.7063268 13.0333333,18.4 C13.0333333,20.0936732 14.4063268,21.4666667 16.1,21.4666667 C17.7936732,21.4666667 19.1666667,20.0936732 19.1666667,18.4 C19.1666667,16.7063268 17.7936732,15.3333333 16.1,15.3333333 Z M16.1,16.8666667 C16.9468366,16.8666667 17.6333333,17.5531634 17.6333333,18.4 C17.6333333,19.2468366 16.9468366,19.9333333 16.1,19.9333333 C15.2531634,19.9333333 14.5666667,19.2468366 14.5666667,18.4 C14.5666667,17.5531634 15.2531634,16.8666667 16.1,16.8666667 Z" id="Oval-Copy-32" fill="#595959" fill-rule="nonzero"></path>
                            <path d="M18.1285495,6.13333333 C19.019531,6.13333333 19.8254734,6.64723429 20.2048285,7.44379678 L20.2640458,7.57913478 L21.3021631,10.1744278 C21.3890996,10.3917691 21.44222,10.6207844 21.4599907,10.8535105 L21.4666667,11.0286264 L21.4666667,16.1 C21.4666667,17.3248887 20.5091614,18.32614 19.3018091,18.3960956 L19.1666667,18.4 L18.4,18.4 C17.9765817,18.4 17.6333333,18.0567516 17.6333333,17.6333333 C17.6333333,17.2401592 17.9292975,16.9161112 18.3105905,16.8718246 L18.4,16.8666667 L19.1666667,16.8666667 C19.5598408,16.8666667 19.8838888,16.5707025 19.9281754,16.1894095 L19.9333333,16.1 L19.9333333,11.0286264 C19.9333333,10.9636031 19.9250618,10.898978 19.9088145,10.8362871 L19.8784988,10.7438935 L18.8403816,8.14860048 C18.7355959,7.8866362 18.4967702,7.70584124 18.2215161,7.67230189 L18.1285495,7.66666667 L15.3333333,7.66666667 C14.909915,7.66666667 14.5666667,7.32341831 14.5666667,6.9 C14.5666667,6.50682586 14.8626308,6.18277784 15.2439238,6.13849126 L15.3333333,6.13333333 L18.1285495,6.13333333 Z" id="Path-740" fill="#595959" fill-rule="nonzero"></path>
                            <path d="M13.0333333,0 C14.6756831,0 16.0164938,1.29104249 16.0962469,2.91360907 L16.1,3.06666667 L16.1,10.7333333 C16.1,12.3756831 14.8089575,13.7164938 13.1863909,13.7962469 L13.0333333,13.8 L1.53333333,13.8 L1.53333333,16.1 C1.53333333,16.4931741 1.82929748,16.8172222 2.21059047,16.8615087 L2.3,16.8666667 L3.06666667,16.8666667 C3.49008497,16.8666667 3.83333333,17.209915 3.83333333,17.6333333 C3.83333333,18.0265075 3.53736919,18.3505555 3.1560762,18.3948421 L3.06666667,18.4 L2.3,18.4 C1.07511132,18.4 0.0738599924,17.4424947 0.00390439828,16.2351425 L0,16.1 L0,3.06666667 C0,1.42431687 1.29104249,0.0835061951 2.91360907,0.00375306888 L3.06666667,0 L13.0333333,0 Z M13.0333333,1.53333333 L3.06666667,1.53333333 C2.25832262,1.53333333 1.59607341,2.15883964 1.53753906,2.9522322 L1.53333333,3.06666667 L1.53333333,12.2666667 L13.0333333,12.2666667 C13.8416774,12.2666667 14.5039266,11.6411604 14.5624609,10.8477678 L14.5666667,10.7333333 L14.5666667,3.06666667 C14.5666667,2.25832262 13.9411604,1.59607341 13.1477678,1.53753906 L13.0333333,1.53333333 Z" id="Path-765" fill="#595959" fill-rule="nonzero"></path>
                            <text id="F" stroke="#000000" stroke-width="2" font-family="AlibabaPuHuiTi-Bold, Alibaba PuHuiTi" font-size="10" font-weight="bold" line-spacing="10" letter-spacing="0.25" fill="#333333">
                                <tspan x="4.79166667" y="12.7083333">F</tspan>
                            </text>
                            <path d="M13.8,16.8666667 C14.2234183,16.8666667 14.5666667,17.209915 14.5666667,17.6333333 C14.5666667,18.0265075 14.2707025,18.3505555 13.8894095,18.3948421 L13.8,18.4 L7.66666667,18.4 C7.24324836,18.4 6.9,18.0567516 6.9,17.6333333 C6.9,17.2401592 7.19596415,16.9161112 7.57725714,16.8718246 L7.66666667,16.8666667 L13.8,16.8666667 Z" id="Path-765-Copy-3" fill="#595959" fill-rule="nonzero"></path>
                        </g>
                    </g>
                </g>
            </g>
        </g>
    </g>
</svg>