<?xml version="1.0" encoding="UTF-8"?>
<svg width="32px" height="32px" viewBox="0 0 32 32" version="1.1" xmlns="http://www.w3.org/2000/svg" xmlns:xlink="http://www.w3.org/1999/xlink">
    <title>icon备份</title>
    <defs>
        <filter color-interpolation-filters="auto" id="filter-1">
            <feColorMatrix in="SourceGraphic" type="matrix" values="0 0 0 0 0.200000 0 0 0 0 0.200000 0 0 0 0 0.200000 0 0 0 1.000000 0"></feColorMatrix>
        </filter>
    </defs>
    <g id="页面-1" stroke="none" stroke-width="1" fill="none" fill-rule="evenodd" stroke-linecap="round">
        <g id="详情页" transform="translate(-152.000000, -3014.000000)">
            <g id="服务与报价" transform="translate(152.000000, 1765.000000)">
                <g id="icon备份" transform="translate(0.000000, 1249.000000)" filter="url(#filter-1)">
                    <g id="142-–-e-commerce" transform="translate(4.000000, 3.000000)">
                        <rect id="body" x="0" y="0" width="22.6934097" height="22.6934097"></rect>
                        <g id="icon" transform="translate(2.320862, 2.278082)" fill="#595959">
                            <path d="M5.79375108,16.7018609 C4.12265453,16.7018609 2.76796312,18.0565523 2.76796312,19.7276488 C2.76796312,21.3987454 4.12265453,22.7534368 5.79375108,22.7534368 C7.46484763,22.7534368 8.81953905,21.3987454 8.81953905,19.7276488 C8.81953905,18.0565523 7.46484763,16.7018609 5.79375108,16.7018609 Z M5.79375108,18.2147549 C6.62929936,18.2147549 7.30664507,18.8921006 7.30664507,19.7276488 C7.30664507,20.5631971 6.62929936,21.2405428 5.79375108,21.2405428 C4.95820281,21.2405428 4.2808571,20.5631971 4.2808571,19.7276488 C4.2808571,18.8921006 4.95820281,18.2147549 5.79375108,18.2147549 Z" id="Oval" fill-rule="nonzero"></path>
                            <path d="M16.384009,16.7018609 C14.7129124,16.7018609 13.358221,18.0565523 13.358221,19.7276488 C13.358221,21.3987454 14.7129124,22.7534368 16.384009,22.7534368 C18.0551055,22.7534368 19.4097969,21.3987454 19.4097969,19.7276488 C19.4097969,18.0565523 18.0551055,16.7018609 16.384009,16.7018609 Z M16.384009,18.2147549 C17.2195572,18.2147549 17.8969029,18.8921006 17.8969029,19.7276488 C17.8969029,20.5631971 17.2195572,21.2405428 16.384009,21.2405428 C15.5484607,21.2405428 14.871115,20.5631971 14.871115,19.7276488 C14.871115,18.8921006 15.5484607,18.2147549 16.384009,18.2147549 Z" id="Oval-Copy-32" fill-rule="nonzero"></path>
                            <path d="M18.3855178,7.62449699 C19.2646226,7.62449699 20.0598218,8.13154763 20.43412,8.91749194 L20.492548,9.05102588 L21.5168271,11.6117236 C21.6026048,11.8261678 21.6550171,12.0521303 21.6725509,12.2817541 L21.6791379,12.4545357 L21.6791379,17.4583079 C21.6791379,18.6668688 20.7343962,19.6547734 19.5431379,19.7237965 L19.4097969,19.7276488 L18.6533499,19.7276488 C18.2355758,19.7276488 17.8969029,19.388976 17.8969029,18.9712019 C17.8969029,18.5832687 18.1889219,18.2635403 18.5651322,18.219844 L18.6533499,18.2147549 L19.4097969,18.2147549 C19.7977301,18.2147549 20.1174585,17.9227359 20.1611547,17.5465256 L20.1662439,17.4583079 L20.1662439,12.4545357 C20.1662439,12.3903792 20.1580826,12.3266155 20.1420519,12.2647603 L20.1121403,12.1735983 L19.0878612,9.6129006 C18.9844723,9.35442831 18.7488302,9.17604334 18.4772452,9.14295107 L18.3855178,9.13739097 L15.627562,9.13739097 C15.2097878,9.13739097 14.871115,8.79871812 14.871115,8.38094398 C14.871115,7.99301085 15.1631339,7.6732824 15.5393443,7.62958616 L15.627562,7.62449699 L18.3855178,7.62449699 Z" id="Path-740" fill-rule="nonzero"></path>
                            <path d="M13.358221,1.57292106 C14.9786783,1.57292106 16.3016159,2.84675394 16.3803059,4.44769168 L16.384009,4.59870902 L16.384009,12.1631789 C16.384009,13.7836362 15.1101761,15.1065738 13.5092383,15.1852639 L13.358221,15.1889669 L2.76796312,15.1889669 C2.38002999,15.1889669 2.06030154,15.4809858 2.0166053,15.8571962 L2.01151613,15.9454139 L2.01151613,17.4583079 C2.01151613,17.846241 2.30353507,18.1659695 2.67974542,18.2096657 L2.76796312,18.2147549 L3.52441011,18.2147549 C3.94218425,18.2147549 4.2808571,18.5534277 4.2808571,18.9712019 C4.2808571,19.359135 3.98883816,19.6788634 3.61262781,19.7225597 L3.52441011,19.7276488 L2.76796312,19.7276488 C1.55940222,19.7276488 0.571497582,18.7829071 0.502474496,17.5916489 L0.498622144,17.4583079 L0.498622144,15.9454139 C0.498622144,14.736853 1.44336389,13.7489484 2.6346221,13.6799253 L2.76796312,13.6760729 L13.358221,13.6760729 C14.1557898,13.6760729 14.8092112,13.0589046 14.8669653,12.276088 L14.871115,12.1631789 L14.871115,4.59870902 C14.871115,3.80114021 14.2539467,3.14771879 13.47113,3.08996471 L13.358221,3.08581504 L9.72876839,3.1806386 C9.31099425,3.1806386 8.9723214,2.84196574 8.9723214,2.42419161 C8.9723214,2.03625848 9.26434034,1.71653003 9.64055069,1.67283379 L9.72876839,1.66774462 L13.358221,1.57292106 Z" id="Path-617" fill-rule="nonzero"></path>
                            <g id="编组-10">
                                <path d="M5.41555717,0 C2.15222137,0 0.0183973821,2.12486982 0,5.71091489 C-0.0120122957,8.09221305 1.51855516,10.3680415 4.48812393,12.5674968 L4.75769816,12.7641343 C5.15683623,13.0507965 5.67549299,13.0503448 6.06958119,12.7663293 C9.2085001,10.5041414 10.8309954,8.16550867 10.8309954,5.71531845 C10.8309954,2.13114235 8.68546553,0 5.41555717,0 Z M5.41555717,1.63294813 C7.85119985,1.63294813 9.28372736,3.05586936 9.28372736,5.71531845 L9.27983679,5.88448573 C9.20458779,7.52290809 8.03686719,9.25205021 5.69772648,11.045778 L5.41472437,11.2583609 L5.37236848,11.2274951 C2.78047738,9.30774632 1.5384809,7.4609993 1.54726991,5.7196908 C1.56095066,3.05184831 2.98583007,1.63294813 5.41555717,1.63294813 Z" id="Oval" fill-rule="nonzero"></path>
                                <ellipse id="Oval" cx="5.41555717" cy="5.62964826" rx="1.54726808" ry="1.54727794"></ellipse>
                            </g>
                            <path d="M14.114668,18.2147549 C14.5324421,18.2147549 14.871115,18.5534277 14.871115,18.9712019 C14.871115,19.359135 14.579096,19.6788634 14.2028857,19.7225597 L14.114668,19.7276488 L8.06309206,19.7276488 C7.64531792,19.7276488 7.30664507,19.388976 7.30664507,18.9712019 C7.30664507,18.5832687 7.59866401,18.2635403 7.97487436,18.219844 L8.06309206,18.2147549 L14.114668,18.2147549 Z" id="Path-765-Copy-3" fill-rule="nonzero"></path>
                        </g>
                    </g>
                </g>
            </g>
        </g>
    </g>
</svg>