<?xml version="1.0" encoding="UTF-8"?>
<svg width="32px" height="32px" viewBox="0 0 32 32" version="1.1" xmlns="http://www.w3.org/2000/svg" xmlns:xlink="http://www.w3.org/1999/xlink">
    <title>icon备份</title>
    <defs>
        <filter color-interpolation-filters="auto" id="filter-1">
            <feColorMatrix in="SourceGraphic" type="matrix" values="0 0 0 0 0.200000 0 0 0 0 0.200000 0 0 0 0 0.200000 0 0 0 1.000000 0"></feColorMatrix>
        </filter>
    </defs>
    <g id="页面-1" stroke="none" stroke-width="1" fill="none" fill-rule="evenodd" stroke-linecap="round">
        <g id="详情页" transform="translate(-152.000000, -2491.000000)">
            <g id="服务与报价" transform="translate(152.000000, 1765.000000)">
                <g id="icon备份" transform="translate(0.000000, 685.233333)" filter="url(#filter-1)">
                    <g>
                        <g id="112-–-e-commerce" transform="translate(6.000000, 0.000000)" fill="#595959" fill-rule="nonzero">
                            <g id="icon">
                                <path d="M19.0666667,52.6333333 L1.46666667,52.6333333 C0.656649034,52.6333333 0,53.2899824 0,54.1 L0,57.0333333 C0,57.843351 0.656649034,58.5 1.46666667,58.5 L19.0666667,58.5 C19.8766843,58.5 20.5333333,57.843351 20.5333333,57.0333333 L20.5333333,54.1 C20.5333333,53.2899824 19.8766843,52.6333333 19.0666667,52.6333333 Z M1.46666667,54.1 L19.0666667,54.1 L19.0666667,57.0333333 L1.46666667,57.0333333 L1.46666667,54.1 Z" id="Rectangle"></path>
                                <path d="M2.04179506,57.5168631 C2.42221416,57.5168631 2.73574966,57.8305207 2.77859953,58.2346084 L2.78359013,58.3293631 L2.78359013,64.0625 C2.78359013,64.919169 3.38880425,65.6210092 4.15645819,65.6830428 L4.26718026,65.6875 L14.7869511,65.6875 C15.1966332,65.6875 15.5287461,66.0512686 15.5287461,66.5 C15.5287461,66.9166791 15.2423834,67.2600996 14.87346,67.3070337 L14.7869511,67.3125 L4.26718026,67.3125 C2.67811029,67.3125 1.38079715,65.9442756 1.30363131,64.2247078 L1.3,64.0625 L1.3,58.3293631 C1.3,57.8806317 1.63211296,57.5168631 2.04179506,57.5168631 Z" id="Path-612"></path>
                                <path d="M8.5,46.7666667 C7.08246914,46.7666667 5.93333333,47.9158025 5.93333333,49.3333333 C5.93333333,50.7508642 7.08246914,51.9 8.5,51.9 C9.91753086,51.9 11.0666667,50.7508642 11.0666667,49.3333333 C11.0666667,47.9158025 9.91753086,46.7666667 8.5,46.7666667 Z M8.5,48.2333333 C9.10751322,48.2333333 9.6,48.7258201 9.6,49.3333333 C9.6,49.9408466 9.10751322,50.4333333 8.5,50.4333333 C7.89248678,50.4333333 7.4,49.9408466 7.4,49.3333333 C7.4,48.7258201 7.89248678,48.2333333 8.5,48.2333333 Z" id="Oval"></path>
                                <path d="M12.1666667,46.7666667 C10.7491358,46.7666667 9.6,47.9158025 9.6,49.3333333 C9.6,50.7508642 10.7491358,51.9 12.1666667,51.9 C13.5841975,51.9 14.7333333,50.7508642 14.7333333,49.3333333 C14.7333333,47.9158025 13.5841975,46.7666667 12.1666667,46.7666667 Z M12.1666667,48.2333333 C12.7741799,48.2333333 13.2666667,48.7258201 13.2666667,49.3333333 C13.2666667,49.9408466 12.7741799,50.4333333 12.1666667,50.4333333 C11.5591534,50.4333333 11.0666667,49.9408466 11.0666667,49.3333333 C11.0666667,48.7258201 11.5591534,48.2333333 12.1666667,48.2333333 Z" id="Oval-Copy-28"></path>
                            </g>
                        </g>
                        <g id="编组-9" transform="translate(20.000000, 59.766667)" fill="#595959">
                            <path d="M4.5,0 C2.01471863,0 0,2.01471863 0,4.5 C0,6.98528137 2.01471863,9 4.5,9 C6.98528137,9 9,6.98528137 9,4.5 C9,2.01471863 6.98528137,0 4.5,0 Z M4.5,1.125 C6.36396103,1.125 7.875,2.63603897 7.875,4.5 C7.875,6.36396103 6.36396103,7.875 4.5,7.875 C2.63603897,7.875 1.125,6.36396103 1.125,4.5 C1.125,2.63603897 2.63603897,1.125 4.5,1.125 Z" id="Oval" fill-rule="nonzero"></path>
                            <path d="M4.50003739,6.3 C4.90686737,6.3 5.23666822,6.62980086 5.23666822,7.03663083 C5.23666822,7.4434608 4.90686737,7.77326165 4.50003739,7.77326165 C4.09320742,7.77326165 3.76340657,7.4434608 3.76340657,7.03663083 C3.76340657,6.62980086 4.09320742,6.3 4.50003739,6.3 Z M4.77624296,2 C5.19045653,2 5.52624296,2.33578644 5.52624296,2.75 C5.52624296,2.77492232 5.52500072,2.79982915 5.52252086,2.82462779 L5.30420544,5.00778193 C5.26586531,5.39118327 4.94324114,5.68315414 4.55792755,5.68315414 L4.44214724,5.68315414 C4.05683365,5.68315414 3.73420948,5.39118327 3.69586935,5.00778193 L3.47755393,2.82462779 C3.43633814,2.41246989 3.73704614,2.0449379 4.14920404,2.00372211 L4.18647155,2.0009311 L4.18647155,2.0009311 L4.77624296,2 Z" id="Combined-Shape"></path>
                        </g>
                    </g>
                </g>
            </g>
        </g>
    </g>
</svg>