<?xml version="1.0" encoding="UTF-8"?>
<svg width="16px" height="16px" viewBox="0 0 16 16" version="1.1" xmlns="http://www.w3.org/2000/svg" xmlns:xlink="http://www.w3.org/1999/xlink">
    <title>矩形</title>
    <g id="页面-1" stroke="none" stroke-width="1" fill="none" fill-rule="evenodd">
        <g id="列表" transform="translate(-151.000000, -1108.000000)" fill="#444444" fill-rule="nonzero">
            <g id="pages" transform="translate(139.000000, 1096.000000)">
                <g id="编组-6" transform="translate(12.000000, 12.000000)">
                    <path d="M5.23822687,6.97388651 L10.7587267,1.11669751 C10.9085905,0.957693735 11.1479292,0.961673268 11.2933047,1.12558605 C11.4274974,1.27689015 11.4347198,1.51158032 11.3171649,1.67185198 L11.285178,1.71027819 L5.76380757,7.56838789 C5.75887905,7.57358359 5.75609475,7.58074842 5.75609475,7.58823529 L5.75821179,7.59913327 L5.76467813,7.60900339 L11.285178,13.4661924 C11.4350417,13.6251962 11.4386802,13.8869718 11.2933047,14.0508845 C11.1591119,14.2021886 10.9448558,14.2172183 10.7948155,14.0935744 L10.7587267,14.0597731 L5.23909743,8.20350477 C5.08631316,8.04243813 5,7.82032846 5,7.58823529 C5,7.38193026 5.06819805,7.18351341 5.19004703,7.02949214 L5.23822687,6.97388651 L10.7587267,1.11669751 L5.23822687,6.97388651 Z" id="left"></path>
                </g>
            </g>
        </g>
    </g>
</svg>