<?xml version="1.0" encoding="UTF-8"?>
<svg width="24px" height="24px" viewBox="0 0 24 24" version="1.1" xmlns="http://www.w3.org/2000/svg" xmlns:xlink="http://www.w3.org/1999/xlink">
    <title>square</title>
    <defs>
        <filter color-interpolation-filters="auto" id="filter-1">
            <feColorMatrix in="SourceGraphic" type="matrix" values="0 0 0 0 0.282353 0 0 0 0 0.439216 0 0 0 0 1.000000 0 0 0 1.000000 0"></feColorMatrix>
        </filter>
    </defs>
    <g id="页面-1" stroke="none" stroke-width="1" fill="none" fill-rule="evenodd">
        <g id="详情页" transform="translate(-152.000000, -1442.000000)">
            <g id="仓库介绍" transform="translate(152.000000, 1216.000000)">
                <g id="icon" transform="translate(0.000000, 226.000000)" filter="url(#filter-1)">
                    <g transform="translate(4.000000, 2.000000)">
                        <path d="M6.39052429,0 L0,6.39052429 L0,17.3333333 C0,18.8060927 1.19390733,20 2.66666667,20 L13.3333333,20 C14.8060927,20 16,18.8060927 16,17.3333333 L16,2.66666667 C16,1.19390733 14.8060927,0 13.3333333,0 L6.39052429,0 Z M1.33333333,6.94266667 L6.94266667,1.33333333 L13.3333333,1.33333333 C14.069713,1.33333333 14.6666667,1.930287 14.6666667,2.66666667 L14.6666667,17.3333333 C14.6666667,18.069713 14.069713,18.6666667 13.3333333,18.6666667 L2.66666667,18.6666667 C1.930287,18.6666667 1.33333333,18.069713 1.33333333,17.3333333 L1.33333333,6.94266667 Z" id="Path-110" fill="#595959" fill-rule="nonzero"></path>
                        <path d="M8.66666667,1 C9.00855723,1 9.29033811,1.25736013 9.32884818,1.58891925 L9.33333333,1.66666667 L9.33333333,6.33333333 C9.33333333,7.39845392 8.50072002,8.26910725 7.45084853,8.3299382 L7.33333333,8.33333333 L2.66666667,8.33333333 C2.29847683,8.33333333 2,8.0348565 2,7.66666667 C2,7.32477611 2.25736013,7.04299523 2.58891925,7.00448515 L2.66666667,7 L7.33333333,7 C7.67522389,7 7.95700477,6.74263987 7.99551485,6.41108075 L8,6.33333333 L8,1.66666667 C8,1.29847683 8.29847683,1 8.66666667,1 Z" id="Path-309" fill="#595959" fill-rule="nonzero"></path>
                        <path d="M12.6666667,11 C13.0348565,11 13.3333333,11.2984768 13.3333333,11.6666667 C13.3333333,12.0085572 13.0759732,12.2903381 12.7444141,12.3288482 L12.6666667,12.3333333 L7.33333333,12.3333333 C6.9651435,12.3333333 6.66666667,12.0348565 6.66666667,11.6666667 C6.66666667,11.3247761 6.92402679,11.0429952 7.25558592,11.0044852 L7.33333333,11 L12.6666667,11 Z" id="Path-2" fill="#595959" fill-rule="nonzero"></path>
                        <path d="M12.6666667,13 C13.0348565,13 13.3333333,13.2984768 13.3333333,13.6666667 C13.3333333,14.0085572 13.0759732,14.2903381 12.7444141,14.3288482 L12.6666667,14.3333333 L7.33333333,14.3333333 C6.9651435,14.3333333 6.66666667,14.0348565 6.66666667,13.6666667 C6.66666667,13.3247761 6.92402679,13.0429952 7.25558592,13.0044852 L7.33333333,13 L12.6666667,13 Z" id="Path-2-Copy" fill="#595959" fill-rule="nonzero"></path>
                    </g>
                </g>
            </g>
        </g>
    </g>
</svg>