<?xml version="1.0" encoding="UTF-8"?>
<svg width="24px" height="24px" viewBox="0 0 24 24" version="1.1" xmlns="http://www.w3.org/2000/svg" xmlns:xlink="http://www.w3.org/1999/xlink">
    <title>search</title>
    <g id="页面-1" stroke="none" stroke-width="1" fill="none" fill-rule="evenodd">
        <g id="首页" transform="translate(-1176.000000, -695.000000)" fill="#FFFFFF" fill-rule="nonzero">
            <g id="搜索" transform="translate(153.000000, 580.000000)">
                <g id="编组-6" transform="translate(1008.000000, 100.000000)">
                    <g id="编组-5" transform="translate(15.000000, 15.000000)">
                        <path d="M10.348247,20.6959015 C4.64158506,20.6959015 0,16.0529189 0,10.3473257 C0,4.64173255 4.64158506,0 10.348247,0 C16.0536589,0 20.6952439,4.64173255 20.6952439,10.3473257 C20.6952439,16.0529189 16.0536589,20.6959015 10.348247,20.6959015 Z M10.348247,2.54651473 C6.0466865,2.54651473 2.54768391,6.04687863 2.54768391,10.3473257 C2.54768391,14.6477728 6.0466865,18.1481367 10.348247,18.1481367 C14.6485574,18.1481367 18.1488101,14.6477728 18.1488101,10.3473257 C18.1488101,6.04687863 14.6485574,2.54651473 10.348247,2.54651473 Z M22.4341195,23.9999975 C22.0181802,24.0007377 21.6191087,23.835615 21.3252894,23.5411973 L15.9186491,18.1356354 C15.3066044,17.523226 15.3068843,16.5305941 15.9192742,15.9185299 C16.5316641,15.3064658 17.5242645,15.3067456 18.1363092,15.9191549 L23.5416994,21.3247169 C23.9892839,21.7730338 24.1230548,22.4466852 23.8807268,23.0320108 C23.6383988,23.6173363 23.0676071,23.9992764 22.4341195,23.9999975" id="形状"></path>
                    </g>
                </g>
            </g>
        </g>
    </g>
</svg>