<?xml version="1.0" encoding="UTF-8"?>
<svg width="32px" height="32px" viewBox="0 0 32 32" version="1.1" xmlns="http://www.w3.org/2000/svg" xmlns:xlink="http://www.w3.org/1999/xlink">
    <title>icon备份</title>
    <defs>
        <filter color-interpolation-filters="auto" id="filter-1">
            <feColorMatrix in="SourceGraphic" type="matrix" values="0 0 0 0 0.200000 0 0 0 0 0.200000 0 0 0 0 0.200000 0 0 0 1.000000 0"></feColorMatrix>
        </filter>
    </defs>
    <g id="页面-1" stroke="none" stroke-width="1" fill="none" fill-rule="evenodd" stroke-linecap="round">
        <g id="详情页" transform="translate(-152.000000, -2039.000000)">
            <g id="服务与报价" transform="translate(152.000000, 1765.000000)">
                <g id="icon备份" transform="translate(0.000000, 274.000000)" filter="url(#filter-1)">
                    <g>
                        <g id="icon" transform="translate(6.000000, 5.000000)" fill="#595959" fill-rule="nonzero">
                            <path d="M11.025,0 C8.99535354,0 7.35,1.62219751 7.35,3.62327956 C7.35,5.6243616 8.99535354,7.24655911 11.025,7.24655911 C13.0546465,7.24655911 14.7,5.6243616 14.7,3.62327956 C14.7,1.62219751 13.0546465,0 11.025,0 Z M11.025,1.44931182 C12.2427879,1.44931182 13.23,2.42263033 13.23,3.62327956 C13.23,4.82392878 12.2427879,5.79724729 11.025,5.79724729 C9.80721213,5.79724729 8.82,4.82392878 8.82,3.62327956 C8.82,2.42263033 9.80721213,1.44931182 11.025,1.44931182 Z" id="Oval"></path>
                            <path d="M16.4794204,6.27639747 L4.86565142,6.40687 C3.58299158,6.39942321 2.46955386,7.27688418 2.19431461,8.51205627 L0.063327854,19.7444436 C0.0212329347,19.93335 0,20.1261937 0,20.3196054 C0,21.7999465 1.21718367,23 2.71865582,23 L18.2809489,23 C18.4227672,23 18.5643682,22.9890593 18.7044552,22.967278 C20.1875976,22.7366737 21.2003118,21.3643285 20.9664156,19.9020593 L19.1488783,8.53919943 C18.941396,7.24206402 17.8113085,6.28413007 16.4794204,6.27639747 Z M5.27051937,7.99826648 L16.4687478,8.0632962 C16.9127105,8.06587373 17.2894064,8.38518505 17.3585671,8.81756352 L19.1761044,20.1804234 C19.2540698,20.6678465 18.9164984,21.1252948 18.4221177,21.202163 C18.375422,21.2094234 18.3282216,21.2130703 18.2809489,21.2130703 L2.71865582,21.2130703 C2.2181651,21.2130703 1.81243721,20.8130524 1.81243721,20.3196054 C1.81243721,20.2551348 1.81951486,20.1908536 1.8335465,20.1278848 L4.38007377,8.70001091 C4.47182018,8.28828689 4.84296609,7.99579989 5.27051937,7.99826648 Z" id="Rectangle"></path>
                        </g>
                        <text id="T" stroke="#000000" stroke-width="4" font-family="PingFangSC-Semibold, PingFang SC" font-size="10" font-weight="500" line-spacing="10" fill="#000000">
                            <tspan x="13.4" y="26">T</tspan>
                        </text>
                    </g>
                </g>
            </g>
        </g>
    </g>
</svg>