<?xml version="1.0" encoding="UTF-8"?>
<svg width="32px" height="32px" viewBox="0 0 32 32" version="1.1" xmlns="http://www.w3.org/2000/svg" xmlns:xlink="http://www.w3.org/1999/xlink">
    <title>icon备份</title>
    <defs>
        <filter color-interpolation-filters="auto" id="filter-1">
            <feColorMatrix in="SourceGraphic" type="matrix" values="0 0 0 0 0.200000 0 0 0 0 0.200000 0 0 0 0 0.200000 0 0 0 1.000000 0"></feColorMatrix>
        </filter>
    </defs>
    <g id="页面-1" stroke="none" stroke-width="1" fill="none" fill-rule="evenodd" stroke-linecap="round">
        <g id="详情页" transform="translate(-152.000000, -3202.000000)">
            <g id="服务与报价" transform="translate(152.000000, 1765.000000)">
                <g id="icon备份" transform="translate(0.000000, 1437.000000)" filter="url(#filter-1)">
                    <g id="137-–-e-commerce" transform="translate(4.000000, 5.000000)">
                        <rect id="body" x="0" y="0" width="23" height="23"></rect>
                        <g id="icon" transform="translate(0.766667, 0.766667)" fill="#595959" fill-rule="nonzero">
                            <path d="M3.06666667,21.4666667 C1.37299343,21.4666667 0,20.0936732 0,18.4 C0,16.7576502 1.29104249,15.4168395 2.91360907,15.3370864 L3.06666667,15.3333333 L3.06666667,3.06666667 C3.06666667,1.42431687 4.35770916,0.0835061951 5.98027574,0.00375306888 L6.13333333,0 L18.4,0 C20.0423498,0 21.3831605,1.29104249 21.4629136,2.91360907 L21.4666667,3.06666667 L21.4666667,18.4 C21.4666667,19.9910264 20.2550535,21.2990653 18.7041727,21.4517715 L18.6514667,21.4551667 L18.6180767,21.4615087 L18.5286671,21.4666667 L3.06666667,21.4666667 Z M13.8,16.8666667 L3.06666667,16.8666667 C2.21983005,16.8666667 1.53333333,17.5531634 1.53333333,18.4 C1.53333333,19.208344 2.15883964,19.8705933 2.9522322,19.9291276 L3.06666667,19.9333333 L15.7442667,19.9333333 L15.6822863,19.8220792 C15.4816992,19.4395272 15.359517,19.0094044 15.3370864,18.5530576 L15.3333333,18.4 C15.3333333,17.591656 14.707827,16.9294067 13.9144345,16.8708724 L13.8,16.8666667 Z M18.4,1.53333333 L6.13333333,1.53333333 C5.32498929,1.53333333 4.66274007,2.15883964 4.60420573,2.9522322 L4.6,3.06666667 L4.6,15.3333333 L13.8,15.3333333 C15.4423498,15.3333333 16.7831605,16.6243758 16.8629136,18.2469424 L16.8666667,18.4 C16.8666667,19.2468366 17.5531634,19.9333333 18.4,19.9333333 C19.208344,19.9333333 19.8705933,19.307827 19.9291276,18.5144345 L19.9333333,18.4 L19.9333333,3.06666667 C19.9333333,2.25832262 19.307827,1.59607341 18.5144345,1.53753906 L18.4,1.53333333 Z" id="Path-166"></path>
                            <g id="dop" transform="translate(9.200000, 6.133327)">
                                <path d="M4.79680782,0.253800299 C5.08005974,-0.0609240509 5.56481528,-0.0864375004 5.87953963,0.196814415 C6.17005441,0.458277721 6.21414097,0.891436424 5.9964192,1.20406833 L5.93652551,1.27954622 L2.52553556,5.06909937 L2.51006511,5.084982 C2.2042474,5.39079971 1.72199112,5.41264384 1.3909679,5.15051437 L1.31741168,5.084982 L0.224551468,3.99212179 C-0.0748504893,3.69271984 -0.0748504893,3.20729335 0.224551468,2.90789139 C0.500922505,2.63152036 0.935799648,2.61026105 1.23655624,2.84411346 L1.30878187,2.90789139 L1.88753333,3.48603993 L4.79680782,0.253800299 Z" id="Path-4"></path>
                            </g>
                        </g>
                    </g>
                </g>
            </g>
        </g>
    </g>
</svg>