<?xml version="1.0" encoding="UTF-8"?>
<svg width="32px" height="32px" viewBox="0 0 32 32" version="1.1" xmlns="http://www.w3.org/2000/svg" xmlns:xlink="http://www.w3.org/1999/xlink">
    <title>icon备份</title>
    <defs>
        <filter color-interpolation-filters="auto" id="filter-1">
            <feColorMatrix in="SourceGraphic" type="matrix" values="0 0 0 0 0.200000 0 0 0 0 0.200000 0 0 0 0 0.200000 0 0 0 1.000000 0"></feColorMatrix>
        </filter>
    </defs>
    <g id="页面-1" stroke="none" stroke-width="1" fill="none" fill-rule="evenodd" stroke-linecap="round">
        <g id="详情页" transform="translate(-152.000000, -2111.000000)">
            <g id="服务与报价" transform="translate(152.000000, 1765.000000)">
                <g id="icon备份" transform="translate(0.000000, 346.000000)" filter="url(#filter-1)">
                    <g id="42-–-building" transform="translate(5.000000, 5.000000)">
                        <rect id="body" x="0" y="0" width="22" height="22"></rect>
                        <g id="icon" stroke-linecap="round" transform="translate(0.733333, 0.733333)" fill="#595959" fill-rule="nonzero">
                            <path d="M10.7222778,-0.614131253 L10.6270551,-0.661057624 L10.5278039,-0.694714474 C10.3261549,-0.748754753 10.108274,-0.723142822 9.92180024,-0.617668185 L4.80952247,2.27397473 L4.72882757,2.32618109 C4.52362055,2.47700359 4.4,2.71766769 4.4,2.97610549 L4.4,8.37393333 L-0.32688541,11.0755075 C-0.578222575,11.2191288 -0.733333333,11.4864125 -0.733333333,11.7758903 L-0.733333333,17.557443 C-0.733333333,17.8469209 -0.578222575,18.1142046 -0.32688541,18.2578258 L4.73311459,21.1492544 L4.82853858,21.1957536 C5.05633977,21.288752 5.31655585,21.2732522 5.53355208,21.1492544 L10.2666667,18.4440667 L14.9997813,21.1492544 C15.2477769,21.2909662 15.5522231,21.2909662 15.8002187,21.1492544 L20.8602187,18.2578258 C21.1115559,18.1142046 21.2666667,17.8469209 21.2666667,17.557443 L21.2666667,11.7758903 L21.2610026,11.6803589 C21.2310096,11.4285428 21.0836296,11.2031708 20.8602187,11.0755075 L16.1333333,8.37393333 L16.1333333,2.97567235 C16.1333333,2.68747811 15.9795835,2.42117565 15.73,2.27707853 L10.7222778,-0.614131253 Z M10.3150667,0.844066667 L14.6666667,3.35646667 L14.6666667,8.75744301 L14.6723307,8.85297444 C14.7023237,9.10479055 14.8497038,9.33016249 15.0731146,9.45782582 L19.8,12.1586667 L19.8,17.1739333 L15.3992667,19.6885333 L10.6668854,16.9840789 L10.5714614,16.9375798 C10.3436602,16.8445814 10.0834441,16.8600811 9.86644792,16.9840789 L5.13333333,19.6885333 L0.733333333,17.1739333 L0.733333333,12.1586667 L5.46021874,9.45782582 L5.54035308,9.40551117 C5.74411002,9.2545342 5.86666667,9.01475666 5.86666667,8.75744301 L5.86666667,3.36086667 L10.3150667,0.844066667 Z" id="Path-419"></path>
                            <path d="M10.2666667,5.5 C10.6427463,5.5 10.9527053,5.78309614 10.9950663,6.14781117 L11,6.23333333 L11,17.2333333 C11,17.6383421 10.6716755,17.9666667 10.2666667,17.9666667 C9.89058705,17.9666667 9.58062808,17.6835705 9.538267,17.3188555 L9.53333333,17.2333333 L9.53333333,6.23333333 C9.53333333,5.82832452 9.86165785,5.5 10.2666667,5.5 Z" id="Path-420"></path>
                            <path d="M4.49657185,8.43625203 C4.68311484,8.10969792 5.0826762,7.98097843 5.42037426,8.12510178 L5.4970813,8.16323851 L15.3992667,13.8196667 L19.4302898,11.4666816 C19.7550782,11.277081 20.1654867,11.3653014 20.3859416,11.6589188 L20.4333184,11.7302898 C20.622919,12.0550782 20.5346986,12.4654867 20.2410812,12.6859416 L20.1697102,12.7333184 L15.4072419,15.5134889 L4.76958536,9.43676149 C4.4179117,9.23586903 4.29567939,8.78792569 4.49657185,8.43625203 Z" id="Path-421"></path>
                            <path d="M15.0361648,8.16328836 C15.3878109,7.96234772 15.835771,8.08451865 16.0367116,8.43616478 C16.2232994,8.76269333 16.1312858,9.17226809 15.8356415,9.38999714 L15.7638352,9.43671164 L5.86666667,15.092 L5.86666667,19.8 C5.86666667,20.1760796 5.58357053,20.4860386 5.21885549,20.5283997 L5.13333333,20.5333333 C4.75725372,20.5333333 4.44729475,20.2502372 4.40493367,19.8855222 L4.4,19.8 L4.4,14.2410968 L15.0361648,8.16328836 Z" id="Path-426"></path>
                            <path d="M0.0998954727,11.7304946 C0.289391094,11.4056449 0.69010291,11.2805529 1.02648058,11.4277316 L1.10283875,11.4665621 L5.50283875,14.0332288 C5.85267682,14.237301 5.9708434,14.686334 5.76677119,15.0361721 C5.57727557,15.3610217 5.17656376,15.4861138 4.84018608,15.3389351 L4.76382791,15.3001045 L0.363827915,12.7334379 C0.0139898442,12.5293657 -0.104176735,12.0803327 0.0998954727,11.7304946 Z" id="Path-427"></path>
                            <path d="M15.4,13.9333333 C15.7760796,13.9333333 16.0860386,14.2164295 16.1283997,14.5811445 L16.1333333,14.6666667 L16.1333333,19.8 C16.1333333,20.2050088 15.8050088,20.5333333 15.4,20.5333333 C15.0239204,20.5333333 14.7139614,20.2502372 14.6716003,19.8855222 L14.6666667,19.8 L14.6666667,14.6666667 C14.6666667,14.2616579 14.9949912,13.9333333 15.4,13.9333333 Z" id="Path-428"></path>
                            <path d="M14.2971612,3.03322881 C14.6469993,2.8291566 15.0960323,2.94732318 15.3001045,3.29716125 C15.4896001,3.62201088 15.401247,4.03239084 15.1075584,4.25275079 L15.0361721,4.30010453 L10.2666667,7.08231602 L5.49716125,4.30010453 C5.14732318,4.09603232 5.0291566,3.64699932 5.23322881,3.29716125 C5.42272443,2.97231161 5.82343624,2.84721954 6.15981392,2.99439827 L6.23617209,3.03322881 L10.2666667,5.38413333 L14.2971612,3.03322881 Z" id="Path-429"></path>
                        </g>
                    </g>
                </g>
            </g>
        </g>
    </g>
</svg>