<?xml version="1.0" encoding="UTF-8"?>
<svg width="32px" height="32px" viewBox="0 0 32 32" version="1.1" xmlns="http://www.w3.org/2000/svg" xmlns:xlink="http://www.w3.org/1999/xlink">
    <title>icon备份</title>
    <defs>
        <filter color-interpolation-filters="auto" id="filter-1">
            <feColorMatrix in="SourceGraphic" type="matrix" values="0 0 0 0 0.200000 0 0 0 0 0.200000 0 0 0 0 0.200000 0 0 0 1.000000 0"></feColorMatrix>
        </filter>
    </defs>
    <g id="页面-1" stroke="none" stroke-width="1" fill="none" fill-rule="evenodd" stroke-linecap="round">
        <g id="详情页" transform="translate(-152.000000, -2183.000000)">
            <g id="服务与报价" transform="translate(152.000000, 1765.000000)">
                <g id="icon备份" transform="translate(0.000000, 418.000000)" filter="url(#filter-1)">
                    <g>
                        <path d="M23.8571429,5 L8.14285714,5 C6.40710507,5 5,6.40710507 5,8.14285714 L5,23.8571429 C5,25.5928949 6.40710507,27 8.14285714,27 L23.8571429,27 C25.5928949,27 27,25.5928949 27,23.8571429 L27,8.14285714 C27,6.40710507 25.5928949,5 23.8571429,5 Z M8.14285714,6.57142857 L23.8571429,6.57142857 C24.7250189,6.57142857 25.4285714,7.27498111 25.4285714,8.14285714 L25.4285714,23.8571429 C25.4285714,24.7250189 24.7250189,25.4285714 23.8571429,25.4285714 L8.14285714,25.4285714 C7.27498111,25.4285714 6.57142857,24.7250189 6.57142857,23.8571429 L6.57142857,8.14285714 C6.57142857,7.27498111 7.27498111,6.57142857 8.14285714,6.57142857 Z" id="Rectangle" fill="#595959" fill-rule="nonzero"></path>
                        <g id="120-–-e-commerce" transform="translate(5.000000, 5.000000)">
                            <rect id="body" x="0" y="0" width="22" height="22"></rect>
                            <g id="icon" transform="translate(0.733333, 0.733333)" fill="#595959" fill-rule="nonzero">
                                <path d="M8.8,0 C9.17607962,0 9.48603858,0.283096139 9.52839966,0.647811175 L9.53333333,0.733333333 L9.53333333,8.8 C9.53333333,9.20500882 9.20500882,9.53333333 8.8,9.53333333 C8.42392038,9.53333333 8.11396142,9.25023719 8.07160034,8.88552216 L8.06666667,8.8 L8.06666667,0.733333333 C8.06666667,0.328324517 8.39499118,0 8.8,0 Z" id="Path-620"></path>
                                <path d="M11.7333333,0 C12.1094129,0 12.4193719,0.283096139 12.461733,0.647811175 L12.4666667,0.733333333 L12.4666667,8.8 C12.4666667,9.20500882 12.1383421,9.53333333 11.7333333,9.53333333 C11.3572537,9.53333333 11.0472947,9.25023719 11.0049337,8.88552216 L11,8.8 L11,0.733333333 C11,0.328324517 11.3283245,0 11.7333333,0 Z" id="Path-620-Copy-3"></path>
                                <path d="M8.8,11 C9.17607962,11 9.48603858,11.2830961 9.52839966,11.6478112 L9.53333333,11.7333333 L9.53333333,19.8 C9.53333333,20.2050088 9.20500882,20.5333333 8.8,20.5333333 C8.42392038,20.5333333 8.11396142,20.2502372 8.07160034,19.8855222 L8.06666667,19.8 L8.06666667,11.7333333 C8.06666667,11.3283245 8.39499118,11 8.8,11 Z" id="Path-620-Copy-5"></path>
                                <path d="M11.7333333,11 C12.1094129,11 12.4193719,11.2830961 12.461733,11.6478112 L12.4666667,11.7333333 L12.4666667,19.8 C12.4666667,20.2050088 12.1383421,20.5333333 11.7333333,20.5333333 C11.3572537,20.5333333 11.0472947,20.2502372 11.0049337,19.8855222 L11,19.8 L11,11.7333333 C11,11.3283245 11.3283245,11 11.7333333,11 Z" id="Path-620-Copy-4"></path>
                                <path d="M19.8,11 C20.2050088,11 20.5333333,11.3283245 20.5333333,11.7333333 C20.5333333,12.1094129 20.2502372,12.4193719 19.8855222,12.461733 L19.8,12.4666667 L0.733333333,12.4666667 C0.328324517,12.4666667 0,12.1383421 0,11.7333333 C0,11.3572537 0.283096139,11.0472947 0.647811175,11.0049337 L0.733333333,11 L19.8,11 Z" id="Path-623"></path>
                                <path d="M19.8,8.06666667 C20.2050088,8.06666667 20.5333333,8.39499118 20.5333333,8.8 C20.5333333,9.17607962 20.2502372,9.48603858 19.8855222,9.52839966 L19.8,9.53333333 L0.733333333,9.53333333 C0.328324517,9.53333333 0,9.20500882 0,8.8 C0,8.42392038 0.283096139,8.11396142 0.647811175,8.07160034 L0.733333333,8.06666667 L19.8,8.06666667 Z" id="Path-623-Copy"></path>
                            </g>
                        </g>
                    </g>
                </g>
            </g>
        </g>
    </g>
</svg>