<?xml version="1.0" encoding="UTF-8"?>
<svg width="32px" height="32px" viewBox="0 0 32 32" version="1.1" xmlns="http://www.w3.org/2000/svg" xmlns:xlink="http://www.w3.org/1999/xlink">
    <title>icon备份</title>
    <defs>
        <filter color-interpolation-filters="auto" id="filter-1">
            <feColorMatrix in="SourceGraphic" type="matrix" values="0 0 0 0 0.200000 0 0 0 0 0.200000 0 0 0 0 0.200000 0 0 0 1.000000 0"></feColorMatrix>
        </filter>
    </defs>
    <g id="页面-1" stroke="none" stroke-width="1" fill="none" fill-rule="evenodd" stroke-linecap="round">
        <g id="详情页" transform="translate(-152.000000, -1851.000000)">
            <g id="服务与报价" transform="translate(152.000000, 1765.000000)">
                <g id="icon备份" transform="translate(0.000000, 86.000000)" filter="url(#filter-1)">
                    <g id="146-–-e-commerce" transform="translate(3.000000, 3.000000)">
                        <rect id="body" x="0" y="0" width="26" height="26"></rect>
                        <g id="icon" transform="translate(3.466667, 0.866667)" fill="#595959" fill-rule="nonzero">
                            <path d="M3.03333333,17.3333333 C0.879422809,17.3333333 -0.866666667,19.0794228 -0.866666667,21.2333333 C-0.866666667,23.3872439 0.879422809,25.1333333 3.03333333,25.1333333 C5.18724386,25.1333333 6.93333333,23.3872439 6.93333333,21.2333333 C6.93333333,19.0794228 5.18724386,17.3333333 3.03333333,17.3333333 Z M3.03333333,19.0666667 C4.22995029,19.0666667 5.2,20.0367164 5.2,21.2333333 C5.2,22.4299503 4.22995029,23.4 3.03333333,23.4 C1.83671638,23.4 0.866666667,22.4299503 0.866666667,21.2333333 C0.866666667,20.0367164 1.83671638,19.0666667 3.03333333,19.0666667 Z" id="Oval"></path>
                            <path d="M0.433333333,-0.866666667 C2.28990267,-0.866666667 3.80560169,0.592772675 3.8957574,2.42697837 L3.9,2.6 L3.9,18.2 C3.9,18.6786468 3.51198012,19.0666667 3.03333333,19.0666667 C2.58887561,19.0666667 2.22256046,18.7320985 2.17249737,18.3010716 L2.16666667,18.2 L2.16666667,2.6 C2.16666667,1.68621978 1.45957258,0.937590228 0.562694032,0.871420972 L0.433333333,0.866666667 L1.11022302e-16,0.866666667 C-0.478646783,0.866666667 -0.866666667,0.478646783 -0.866666667,1.11022302e-16 C-0.866666667,-0.444457727 -0.532098502,-0.810772873 -0.101071642,-0.860835966 L1.11022302e-16,-0.866666667 L0.433333333,-0.866666667 Z" id="Path-14"></path>
                            <path d="M19.0666667,20.8 C19.5453134,20.8 19.9333333,21.1880199 19.9333333,21.6666667 C19.9333333,22.1111244 19.5987652,22.4774395 19.1677383,22.5275026 L19.0666667,22.5333333 L6.06666667,22.5333333 C5.58801988,22.5333333 5.2,22.1453134 5.2,21.6666667 C5.2,21.2222089 5.53456816,20.8558938 5.96559502,20.8058307 L6.06666667,20.8 L19.0666667,20.8 Z" id="Path-169"></path>
                            <path d="M17.3333333,6.06666667 L7.8,6.06666667 C6.36405965,6.06666667 5.2,7.23072632 5.2,8.66666667 L5.2,16.4666667 C5.2,17.902607 6.36405965,19.0666667 7.8,19.0666667 L17.3333333,19.0666667 C18.7692737,19.0666667 19.9333333,17.902607 19.9333333,16.4666667 L19.9333333,8.66666667 C19.9333333,7.23072632 18.7692737,6.06666667 17.3333333,6.06666667 Z M7.8,7.8 L17.3333333,7.8 C17.8119801,7.8 18.2,8.18801988 18.2,8.66666667 L18.2,16.4666667 C18.2,16.9453134 17.8119801,17.3333333 17.3333333,17.3333333 L7.8,17.3333333 C7.32135322,17.3333333 6.93333333,16.9453134 6.93333333,16.4666667 L6.93333333,8.66666667 C6.93333333,8.18801988 7.32135322,7.8 7.8,7.8 Z" id="Rectangle"></path>
                            <path d="M18.2,10.4 C18.6786468,10.4 19.0666667,10.7880199 19.0666667,11.2666667 C19.0666667,11.7111244 18.7320985,12.0774395 18.3010716,12.1275026 L18.2,12.1333333 L6.06666667,12.1333333 C5.58801988,12.1333333 5.2,11.7453134 5.2,11.2666667 C5.2,10.8222089 5.53456816,10.4558938 5.96559502,10.4058307 L6.06666667,10.4 L18.2,10.4 Z" id="Path-175"></path>
                        </g>
                    </g>
                </g>
            </g>
        </g>
    </g>
</svg>