<?xml version="1.0" encoding="UTF-8"?>
<svg width="24px" height="24px" viewBox="0 0 24 24" version="1.1" xmlns="http://www.w3.org/2000/svg" xmlns:xlink="http://www.w3.org/1999/xlink">
    <title>location</title>
    <g id="页面-1" stroke="none" stroke-width="1" fill="none" fill-rule="evenodd" stroke-linecap="round">
        <g id="首页" transform="translate(-174.000000, -1325.000000)" fill="#4870FF" fill-rule="nonzero">
            <g id="列表1" transform="translate(154.000000, 1010.000000)">
                <g id="icon" transform="translate(20.000000, 315.000000)">
                    <path d="M12,2 C16.6033607,2 20,5.22287261 20,10.0967816 C20,13.3809316 17.6172999,17.2074793 12.9078862,21.6390323 C12.3961346,22.1205901 11.6038582,22.12059 11.090405,21.6374254 L11.090405,21.6374254 L10.8215674,21.3826671 C10.7309809,21.2962206 10.6412893,21.210006 10.5524929,21.1240231 L10.5524929,21.1240231 L10.0304613,20.6109002 C6.02542538,16.6131446 4,13.1248131 4,10.0967816 C4,5.22287261 7.39663928,2 12,2 Z M12,3.34946359 C8.11447183,3.34946359 5.33333333,5.98832346 5.33333333,10.0967816 C5.33333333,12.6864523 7.19809717,15.8893618 10.9718495,19.6552356 L10.9718495,19.6552356 L11.4749077,20.149625 L11.7345631,20.3992065 L11.9999932,20.6507357 L12.2599297,20.4044527 C16.5486735,16.3124567 18.6666667,12.8569008 18.6666667,10.0967816 C18.6666667,5.98832346 15.8855282,3.34946359 12,3.34946359 Z M12,6.04839078 C14.209139,6.04839078 16,7.86091706 16,10.0967816 C16,12.332646 14.209139,14.1451723 12,14.1451723 C9.790861,14.1451723 8,12.332646 8,10.0967816 C8,7.86091706 9.790861,6.04839078 12,6.04839078 Z M12,7.39785437 C10.5272407,7.39785437 9.33333333,8.60620523 9.33333333,10.0967816 C9.33333333,11.5873579 10.5272407,12.7957087 12,12.7957087 C13.4727593,12.7957087 14.6666667,11.5873579 14.6666667,10.0967816 C14.6666667,8.60620523 13.4727593,7.39785437 12,7.39785437 Z" id="形状结合"></path>
                </g>
            </g>
        </g>
    </g>
</svg>