<?xml version="1.0" encoding="UTF-8"?>
<svg width="24px" height="24px" viewBox="0 0 24 24" version="1.1" xmlns="http://www.w3.org/2000/svg" xmlns:xlink="http://www.w3.org/1999/xlink">
    <title>square</title>
    <g id="页面-1" stroke="none" stroke-width="1" fill="none" fill-rule="evenodd" stroke-linecap="round">
        <g id="首页" transform="translate(-332.000000, -1325.000000)" fill="#4870FF" fill-rule="nonzero">
            <g id="列表1" transform="translate(154.000000, 1010.000000)">
                <g id="编组-9" transform="translate(178.000000, 315.000000)">
                    <g id="icon" transform="translate(2.179252, 1.794119)">
                        <path d="M9.14345465,0.322306895 L0.271119224,7.98123052 C-0.0456272249,8.25465761 -0.0914796769,8.7461567 0.168704906,9.07902446 L0.224715164,9.14304998 C0.362475602,9.28388731 0.547881643,9.36392011 0.742225086,9.36392011 L2.57797512,9.36392011 L2.57797512,17.163712 C2.57797512,18.7301506 3.78632368,20 5.27689717,20 L14.7231243,20 L14.8578278,19.9965289 C16.2858215,19.9227671 17.4220464,18.6826828 17.4220464,17.163712 L17.4220464,9.36392011 L19.2577964,9.36392011 C19.6677041,9.36392011 20,9.01471153 20,8.58394092 C20,8.35052965 19.90053,8.12938585 19.7289023,7.98123052 L10.8565669,0.322306895 C10.3587398,-0.107435632 9.64128176,-0.107435632 9.14345465,0.322306895 Z M10.0000108,1.41805936 L17.5617156,7.94577612 L16.8147889,7.94577612 C16.4048812,7.94577612 16.0725854,8.2949847 16.0725854,8.72575531 L16.0725854,17.163712 C16.0725854,17.9469313 15.4684111,18.581856 14.7231243,18.581856 L5.27689717,18.581856 C4.53161043,18.581856 3.92743615,17.9469313 3.92743615,17.163712 L3.92743615,8.72575531 L3.923081,8.64076799 C3.88278509,8.2499756 3.56781311,7.94577612 3.18523258,7.94577612 L2.43763118,7.94577612 L10.0000108,1.41805936 Z" id="Path-593"></path>
                        <path d="M14.8149763,10.1215924 L14.8149763,9.63818009 L13.5922275,9.63818009 C13.6870142,9.55287204 13.7818009,9.47704265 13.867109,9.41069194 C13.9808531,9.31590521 14.0851185,9.24007583 14.1799052,9.18320379 C14.36,9.05998104 14.5021801,8.93675829 14.6064455,8.80405687 C14.7391469,8.63344076 14.8054976,8.46282464 14.8054976,8.29220853 C14.8054976,8.05524171 14.7201896,7.86566825 14.5495735,7.72348815 C14.3789573,7.57182938 14.1609479,7.496 13.895545,7.496 C13.6111848,7.496 13.374218,7.59078673 13.1846445,7.78983886 C12.9950711,7.97941232 12.9002844,8.21637915 12.9002844,8.50073934 L13.4500474,8.50073934 C13.4500474,8.31116588 13.4879621,8.17846445 13.5637915,8.0931564 C13.6301422,7.99836967 13.7344076,7.96045498 13.8860664,7.96045498 C14.0092891,7.96045498 14.1040758,7.988891 14.1609479,8.04576303 C14.2178199,8.10263507 14.2557346,8.1974218 14.2557346,8.31116588 C14.2557346,8.39647393 14.2178199,8.48178199 14.1514692,8.57656872 C14.0945972,8.6523981 14.0092891,8.72822749 13.9050237,8.80405687 C13.5163981,9.07893839 13.2983886,9.24007583 13.2604739,9.28746919 C13.0235071,9.51495735 12.9002844,9.79931754 12.8908057,10.1215924 L14.8149763,10.1215924 Z M7.44056872,15.496 L7.44056872,12.5576114 C7.44056872,12.2353365 7.53535545,11.9509763 7.72492891,11.7234882 C7.91450237,11.4770427 8.16094787,11.3632986 8.47374408,11.3632986 C9.11829384,11.3632986 9.44056872,11.7329668 9.44056872,12.481782 L9.44056872,15.496 L10.5211374,15.496 L10.5211374,12.5007393 C10.5211374,12.1405498 10.6064455,11.8656682 10.796019,11.6666161 C10.9761137,11.4580853 11.1941232,11.3632986 11.4595261,11.3632986 C11.838673,11.3632986 12.1040758,11.4486066 12.2746919,11.6287014 C12.4358294,11.7993175 12.5211374,12.0836777 12.5211374,12.4723033 L12.5211374,15.496 L13.6017062,15.496 L13.6017062,12.2827299 C13.6017062,11.7424455 13.43109,11.3064265 13.0993365,10.9651943 C12.7675829,10.6239621 12.3505213,10.4628246 11.8481517,10.4628246 C11.5163981,10.4628246 11.2415166,10.5196967 11.0235071,10.6334408 C10.7770616,10.7471848 10.5400948,10.9557156 10.3126066,11.2590332 C9.99981043,10.7282275 9.48796209,10.4628246 8.76758294,10.4628246 C8.29364929,10.4628246 7.84815166,10.6713555 7.44056872,11.0978957 L7.44056872,10.5955261 L6.36,10.5955261 L6.36,15.496 L7.44056872,15.496 Z" id="㎡"></path>
                    </g>
                </g>
            </g>
        </g>
    </g>
</svg>