<?xml version="1.0" encoding="UTF-8"?>
<svg width="24px" height="24px" viewBox="0 0 24 24" version="1.1" xmlns="http://www.w3.org/2000/svg" xmlns:xlink="http://www.w3.org/1999/xlink">
    <title>编组</title>
    <g id="页面-1" stroke="none" stroke-width="1" fill="none" fill-rule="evenodd">
        <g id="详情页" transform="translate(-719.000000, -1134.000000)" fill="#666666" fill-rule="nonzero">
            <g id="联系方式" transform="translate(152.000000, 1018.000000)">
                <g id="联系方式信息" transform="translate(104.000000, 76.000000)">
                    <g id="微信icon" transform="translate(463.000000, 40.000000)">
                        <g id="编组" transform="translate(2.000000, 4.000000)">
                            <path d="M13.9400814,4.82911138 C14.0384126,4.82911138 14.136141,4.83123408 14.2334005,4.83476471 C13.6140075,2.08337033 10.6907077,0 7.17742043,0 C3.21342609,0 0,2.65203876 0,5.92345263 C0,7.8347972 1.09720591,9.53436939 2.79982762,10.617469 L2.08272862,12.6694319 L4.45728039,11.406249 C5.29624401,11.6900417 6.21456033,11.8469053 7.17739809,11.8469053 C7.36300832,11.8469053 7.54696631,11.8411003 7.72900413,11.8296637 C7.52814406,11.313608 7.41931882,10.7636757 7.41931882,10.1927979 C7.41936348,7.23054096 10.3387783,4.82911138 13.9400814,4.82911138 Z M9.65436706,2.92820706 C10.2397326,2.92820706 10.7142857,3.38855255 10.7142857,3.95644122 C10.7142857,4.52430823 10.2397549,4.98467538 9.65436706,4.98467538 C9.06897921,4.98467538 8.59444842,4.52432989 8.59444842,3.95644122 C8.59447076,3.38855255 9.06900155,2.92820706 9.65436706,2.92820706 Z M4.72349365,4.9846537 C4.13812812,4.9846537 3.66357501,4.52430821 3.66357501,3.95641954 C3.66357501,3.38855253 4.1381058,2.92818539 4.72349365,2.92818539 C5.30888151,2.92818539 5.7834123,3.38853088 5.7834123,3.95641954 C5.7834123,4.52428656 5.30888151,4.9846537 4.72349365,4.9846537 Z" id="形状"></path>
                            <path d="M20,10.1928196 C20,7.4398657 17.2868932,5.20816592 13.9400814,5.20816592 C10.5932695,5.20816592 7.88018506,7.4398657 7.88018506,10.1928196 C7.88018506,12.9457735 10.5932919,15.1774733 13.9401037,15.1774733 C14.6428237,15.1774733 15.3174107,15.0787459 15.9450203,14.8978177 L18.0169646,16 L17.4147863,14.2768614 C18.9778822,13.3753615 20,11.8823631 20,10.1928196 Z M12.046781,9.47753288 C11.5781001,9.47753288 11.1981718,9.10896193 11.1981718,8.65429142 C11.1981718,8.19962094 11.5781001,7.83104996 12.046781,7.83104996 C12.5154619,7.83104996 12.8953902,8.19962092 12.8953902,8.65429142 C12.8953902,9.10896193 12.5154619,9.47753288 12.046781,9.47753288 Z M15.9946994,9.47753288 C15.5260185,9.47753288 15.1460902,9.10896193 15.1460902,8.65429142 C15.1460902,8.19962094 15.5260185,7.83104996 15.9946994,7.83104996 C16.4633803,7.83104996 16.8433086,8.19962092 16.8433086,8.65429142 C16.8433086,9.10896193 16.463358,9.47753288 15.9946994,9.47753288 Z" id="形状"></path>
                        </g>
                    </g>
                </g>
            </g>
        </g>
    </g>
</svg>